<svg xmlns="http://www.w3.org/2000/svg" xmlns:xlink="http://www.w3.org/1999/xlink" width="777.74" height="260.88" viewBox="0 0 777.74 260.88"><defs><radialGradient id="bfc64064-9d5a-458a-919e-c2d662965538" cx="357.8" cy="41.88" r="35.93" gradientUnits="userSpaceOnUse"><stop offset="0" stop-color="#ff9b39"/><stop offset="1" stop-color="#f66a00"/></radialGradient><radialGradient id="fded8f86-2929-4f39-afa1-0ecee1f433c4" cx="1479.89" cy="3848.77" r="0.08" gradientTransform="matrix(30.99, 0, 0, 30.99, -45489.35, -119253.56)" xlink:href="#bfc64064-9d5a-458a-919e-c2d662965538"/></defs><g id="af0fb222-ab10-4d26-b04a-e129eded373c" data-name="Layer 2"><g id="a2ade11b-b3a0-4b4a-877c-ff14d1d8b0f0" data-name="Layer 1"><path d="M566.89,167.3c.57-.2,1.27-.47,2-.67,3.35-.94,4.15-2.95,3.18-6.28-2.28-7.79-1.1-15.51,1.45-23a9.07,9.07,0,0,1,4.12-4.63c8.49-4.33,14.92-3.56,19.88,3.44,2.89,4.09,4.65,9.11,6.28,13.93a196.72,196.72,0,0,1,5.84,20.62c1.35,6.1,2.75,12.42-.79,18.65.58.09,1,.32,1.3.18,5.06-2.82,10.34-2,15.67-1.13,1.32.2,3.32,0,4-.82s.44-2.79.05-4.1c-2.13-7.15-4.71-14.17-6.56-21.39a40.12,40.12,0,0,1-.83-11.44c.17-4.15,2.68-7.1,6.35-9,2.08-1.1,4.23-2.08,6.24-3.31,6.38-3.9,18.19,1.68,18.08,10.08-.14,11.86,4.1,22.38,9.52,32.52,3.31,6.19,12.68,9.7,17.9,7.21a18.28,18.28,0,0,0,1.55-1.09c-1.74-.82-3.06-1.53-4.45-2.08-5.62-2.18-11.3-4.82-13-11-2.36-8.72-5.81-17.69-.71-26.68a21.14,21.14,0,0,1,3.61-4.47c3.25-3.19,6.22-3.46,9.62-.49,2.2,1.92,4.58,2.28,7.28,2.68,5.47.83,10.82,2.48,16.3,3.25,13.93,2,27.92,1.74,41.93.53,8-.69,16-1,24-1.14s12.71,10.21,10.45,16.79c-1.25,3.63-2.59,7.23-3.66,10.91a10.5,10.5,0,0,0-.21,4.43c1,6.45-4,14-10.42,15.42-2.08.45-4.25.46-6.36.77-6.65,1-13.42,1.49-19.87,3.22-3.13.83-6,3.66-8.4,6.11-14.55,14.58-31.8,23.09-52.6,22.87-4.68,0-9.41-2.36-14-4-1.66-.61-2.81-1-4.37,0-12.81,8.85-26.58,7.57-40.23,2.95-3.72-1.27-6.91-4.89-9.66-8a36.49,36.49,0,0,1-5.66-9.64c-1.42-3.27-2.09-6.87-3-10.12-11.43,7.35-24.43,10.92-37.8,12.94-9.61,1.45-19,3.76-28.35,6.11-18.4,4.59-37.11,5.76-55.73,2.33-10.23-1.88-21-1.33-30.64-6.14a62.18,62.18,0,0,1-11.5-6.88c-5-4.1-9.52-8.88-14.26-13.34a29.76,29.76,0,0,0-2.81-2c.82,3.23,1.49,5.54,2,7.89.6,2.82,1.1,5.65,1.54,8.49,1,6.85-2.16,10.91-7.69,15-7.29,5.38-14.67,3.23-22.12,2.65-1.4-.1-3-2.76-3.77-4.56-2.34-5.58-4.31-11.31-6.72-17.76-.73,2.27-1.13,3.78-1.7,5.22-1.94,4.9-6.07,7.6-10.69,9-7,2.12-14.29,3.45-21.45,5.13-8.27,1.93-16.32.7-24.35-1.46a7,7,0,0,0-4,.49A76,76,0,0,1,286,227.9a9.88,9.88,0,0,1-8.74-5.46c-6.08-10.94-10.94-22.29-10.55-35.19a9.67,9.67,0,0,0-.25-1.57c-3,1.08-5.81,2.19-8.69,3.12-4.94,1.61-5.07,1.83-3.39,7,1.15,3.56,2.44,7.09,3.28,10.73a13.25,13.25,0,0,1-2.29,11.57,24.38,24.38,0,0,0-2.07,4.19c-1.88,3.88-5.67,5.44-9.31,6.21a136.17,136.17,0,0,1-20.88,2.87c-13.34.7-26.72.72-40.07,1.22a30.4,30.4,0,0,0-7.47,1.72c-4.86,1.46-9.07.71-12.76-3.53-.3,1-.6,1.67-.76,2.42-.69,3.41-1.94,6.3-5.72,7.39a3.84,3.84,0,0,0-2.38,2c-1.89,6.4-7.28,9-12.64,10.91-10.78,3.89-21.86,6.86-33.41,7.37-5.87.26-9.73-3.22-11.17-8.91a38.39,38.39,0,0,1-.13-17.77,66.59,66.59,0,0,0,1.07-11.12c0-.64-1.4-1.91-2.14-1.89-4.48.1-9,.39-13.44.81a73,73,0,0,0-7.59,1.32c-9.73,2-19.29,3-29.06-.66-4.16-1.55-9.07-1.26-13.66-1.44-7.87-.29-9.58-1.49-11.7-9.14-.32-1.13-.57-2.28-.89-3.42a15.11,15.11,0,0,0-5.43-8C5.3,193.5-1.88,185.26.44,172.64a61.44,61.44,0,0,0,.64-11.83C1,156.12,2.32,152.29,6,149.16a49.77,49.77,0,0,0,6-6.59c3.53-4.3,8.2-6.67,13.26-8.65,7.05-2.75,14-5.82,21.23-8.87-2.28-2.44-4.62-4.23-6-6.59a14.7,14.7,0,0,1-1.61-7c0-4,.46-8.07.79-12.1a70.76,70.76,0,0,1,1-9.23c.94-4.38,3.79-5.31,8.17-5,5,.33,10-.59,15-1,7.54-.56,14.64-2.69,21.66-5.44,6.37-2.48,10.39.48,11.9,8.35a39.12,39.12,0,0,1-1.61,21.53A23,23,0,0,1,79,123.19c-3.1.69-6.17,1.56-10.09,2.56,4.78,3,5,7.89,6.07,12.42,1.26,5.55,0,10.29-5,13.39-5.83,3.58-11.81,6.88-17.68,10.38-2.66,1.58-5.28,3.25-7.81,5-1.85,1.3-1.47,2.55.64,3a24.11,24.11,0,0,0,5.42.51q21.64-.48,43.29-1.12a59.74,59.74,0,0,0,7.27-1.23c-3.81-4.19-6.73-8-10.22-11.08s-3.54-3.78-.11-6.73c7.3-6.26,14.7-12.46,19.09-21.38,2.17-4.39,5.06-4.29,7.91-.21,1.74,2.48,3.72,4.79,5.59,7.18l1-.52c-1.08-4.17-2.22-8.32-3.21-12.5C118,109.3,115.92,95.59,118,81.59a9.88,9.88,0,0,1,6.86-8.22c6.58-2.2,13.33-3,20.19-1.07,4.35,1.2,5.78,3,6.27,7.39,1.07,9.66,2,19.34,3.59,28.92.91,5.66,2.84,11.15,4.43,17.16a27,27,0,0,1,.91-4.67c.56-1.44,1.23-3.13,2.39-4,5.32-3.93,10.78-7.7,16.33-11.31.81-.52,2.52-.23,3.54.25,5.1,2.38,5.28,7.6,6.65,12.11,3.21,10.51,6.39,21,9.62,31.52,2.49,8.07,2.93,16.22.35,24.27-.69,2.13-2.81,4-4.65,5.53-5.4,4.49-11.81,6.91-18.56,8.62-8.71,2.21-17.37,4.57-26,7-4,1.11-7.95,1.62-11.7-.56-.42.53-.74.75-.78,1-1.1,7-5.94,10.39-12.1,12.73a55.64,55.64,0,0,0-11.87,6.37L154,212.9c-.39-1.39-.8-2.86-1.22-4.33-1.33-4.57.32-7.6,4.6-9.47A107.19,107.19,0,0,0,169,193.2c7.84-4.6,16.46-5.85,25.28-6.36,7.57-.44,15.15-.78,23.19-1.19a18.63,18.63,0,0,0-.79-3c-2.79-6.33-.94-16.25,4.1-21,5.54-5.26,12.36-8.39,19.3-11.23,4.08-1.67,4.55-1.73,2.82-5.84-2.43-5.77-5.66-11.2-8.37-16.87-1.35-2.83-2.29-5.85-3.38-8.69-3.33-.36-7-.89-10.66-1.09-5.92-.32-9.65-3.38-11.93-8.68a101.71,101.71,0,0,0-6.13-13c-1.8-2.94-4.77-5.14-7.05-7.82a35.52,35.52,0,0,1-4.88-6.7c-2.29-4.52-.93-7.29,3.91-8.81,6.43-2,12.88-3.76,19.76-2.4,15.66,3.1,29.39-2.83,43.07-9.2a72.34,72.34,0,0,0,27-21.71c2.27-2.94,5.56-3.37,9-3.07a1.86,1.86,0,0,1,1.18.45c3.58,4.11,7.74,7.89,10.53,12.49,6.06,10,3,24.12-5.88,31.43a50.36,50.36,0,0,0-3.9,4.1c12.92,1.83,22,8.43,19.27,21.26-3.24,15-9.81,19.49-20.15,18.41-12.9-1.34-18.69-7.21-20.15-20.76-2.89,2.7-5.46,5-7.85,7.45-.39.41-.24,1.64,0,2.35,1.06,2.68,2.2,5.33,3.44,7.94,5.79,12.25,9.41,25,8.88,38.7a20,20,0,0,0,.12,2.56,4.3,4.3,0,0,0,.28.88c.22.12.46.34.58.29,4.94-1.93,8.4-.77,11,4.14,1.18,2.18,3.85,3.63,6,5.16.9.63,2.27.57,4.35,1-1.48-2.61-2.83-4.22-3.36-6.07-1.86-6.45-3.7-12.94-5-19.51a60.69,60.69,0,0,1-.71-11.84c0-4,1.65-7,5.77-8.29,2.75-.86,5.37-2.16,8.12-3,5-1.57,9.12-.81,11.59,4.13,3.47,6.94,8.27,13.2,12.05,20,2.37,4.27,3.89,9,5.84,13.51.54,1.24,1.23,2.41,2,3.94,3.07-2.56,2.35-5.36,1.52-8.08-1-3.37-2.35-6.65-3.35-10-2.19-7.38-4.24-14.8-6.37-22.19-1.32-4.6-3-9.13-3.87-13.82-.5-2.8.42-5.84.59-8.78s.22-5.76.26-8.64c.07-4.86,1.83-7.64,6.5-9.11s9.2-3,13.91-3.53c6.25-.64,8.5,1.37,10,7.45,2.4,9.55,4.65,19.13,7,28.68a32,32,0,0,0,1.57,4l.86-.17c-.32-3.41-.9-6.81-.89-10.22,0-4.78-.5-9.87,1-14.25,1.78-5.33,4.89-10.52,11.26-12.09,2.38-.58,4.76-1.28,7.18-1.66a9.66,9.66,0,0,1,10.22,6.66q3.93,12.7,7.2,25.62c2.68,10.55,5,21.19,7.55,31.79.27,1.11.64,2.21,1,3.59,9.37-11.11,22.73-12.71,35.37-15.91,4.35-1.1,8.69-2.26,13-3.37,1.75-.44,2.33-1.48,2.16-3.3-.4-4.35-1.68-9-.69-13,1.89-7.72,5.06-15.13,7.8-22.64.81-2.2,2.23-4.2,2.88-6.43,2.24-7.7,14.55-12.21,20.81-9.53A21.56,21.56,0,0,1,499.09,84c3,3.33,5.23,7.31,8.2,10.64a52.22,52.22,0,0,0,7.58,6.36c5.28,4,7.39,9.36,7.45,15.87,0,6.29.54,12.58.74,18.88.15,4.87-.3,5.42-4.81,7-2.33.81-4.66,1.59-6.95,2.49-6.13,2.4-11.18.54-15.25-4.15-3-3.43-5.54-7.21-8.6-11.24.19,1.51.27,2.93.56,4.31,1.25,5.93,2.68,11.82,3.81,17.78.86,4.49-1.82,7.17-5.65,8.46s-7.89,1.83-11.79,2.93c-8.61,2.45-17.19,5-25.77,7.61a14.66,14.66,0,0,0-2.43,1.34c2.33,2.95,5.53,3.66,8.56,4.27a116.48,116.48,0,0,0,56.79-2.32c5.63-1.68,11.37-3,17-4.71a18.44,18.44,0,0,0,5.66-2.91c3.15-2.39,3.82-5.89,2.1-9.46-1-2-2-4-3.12-6-1.84-3.22-1.84-6.4.38-9.33a9.77,9.77,0,0,1,10.32-3.5c5.78,1.43,10,4.32,12.09,10.27.91,2.61,3.25,4.69,4.69,7.16C562.78,159.43,564.69,163.22,566.89,167.3ZM282.05,94.08l.65,1.07c-.51.87-1,1.76-1.53,2.61-4.65,7.41-3.06,15.86,4.15,19.62A39.41,39.41,0,0,0,296,120.71c6.21,1.2,9.76-3,12-7.51.48-1,.66-2,1.06-3,2.36-5.7-.08-14.24-5.19-17.85a8,8,0,0,0-2.64-1c-4.13-1.08-8.3-2-12.41-3.2a3.39,3.39,0,0,1-2-1.76c-.18-.46.51-1.51,1.07-2,3.56-3.17,7.38-6.07,10.75-9.44,6.46-6.46,7.86-20.42-.51-27.82a31.26,31.26,0,0,1-4.58-4.47c-1.54-2.07-3-1.69-4.6-.42a19.45,19.45,0,0,0-2.34,2.61C280.41,52,273.62,58.5,264.94,62.58c-7.54,3.54-15.22,6.81-22.85,10.18a33.09,33.09,0,0,1-17.18,2.95c-4-.43-8.14-.13-12.17-.56a30.88,30.88,0,0,0-14.15,1.68c-5,1.8-5.63,3.37-2.26,7.59.53.66,1.23,1.19,1.79,1.83,3,3.44,6.45,6.62,8.9,10.43s4.14,8.38,6,12.68a5.94,5.94,0,0,0,5.4,3.82c5.43.55,10.83,1.36,16.07-1.13a2.92,2.92,0,0,1,2.74.61c.46.57.16,1.88,0,2.82-.25,1.23-.86,2.38-1.08,3.61-.83,4.62,2.21,7.87,4.28,11.4,3.53,6,6.59,12.18,8.26,19,.37,1.5,0,2.11-1.54,2.83-6.67,3.08-13.55,5.93-19.73,9.85-7.87,5-9.58,12.13-6.2,20.82,2.16,5.54,1.26,6.85-4.79,7-.32,0-.65,0-1,0-6.41.31-12.83.45-19.23,1-8.22.69-16.4,1.69-23.78,5.93a126.1,126.1,0,0,1-11.82,6.27c-3.66,1.61-4.51,2.29-2.89,5.92,2.82,6.32,6.16,12.41,9.1,18.68,1.33,2.82,3,3.42,5.87,2.29,7-2.72,14.31-3.27,21.76-3.24,11.55,0,23.15.48,34.65-.39,9-.68,19.2-.74,22.87-12.07a16.59,16.59,0,0,0,.88-6.75c-.32-2.83-1.52-5.56-2.19-8.36a61.72,61.72,0,0,1-1.75-8.78,5.13,5.13,0,0,1,5-5.53,18.77,18.77,0,0,0,13.58-6.3c1-1.06,2.7-1.43,4.88-2.5-.41,3.35-.76,5.53-.95,7.73-1.07,12.68,3.61,24,8.87,35,1.36,2.84,3.89,4.43,7.47,4.67,9.94.68,19.29-1.35,28.59-4.66,3-1.07,6.64-.85,9.94-.6,5.3.41,10.66,2.3,15.84,1.82A133.25,133.25,0,0,0,365,215.43c4.45-1.24,9-3.3,10.4-8.57a62.33,62.33,0,0,0-1.56-38.4,29.27,29.27,0,0,1-.91-3.07c-2.09-8.94-4.13-17.89-6.28-26.82a48,48,0,0,0-1.86-5.1c-2.45-6.83-5.18-13.58-7.25-20.52-2.14-7.17-3.71-14.51-5.36-21.81-.79-3.49-2.78-5-6.2-4.34-3.76.72-7.47,1.69-11.2,2.54-3.43.78-4.55,3-4.45,6.38a30.81,30.81,0,0,1-.45,8.6c-1.25,4.8-.64,9.3.84,13.84,1.15,3.55,2.31,7.11,3.4,10.68q4.47,14.73,8.89,29.46c1,3.36,1.77,6.79-.71,9.79a56.27,56.27,0,0,1-5.13,4.86c-1.66-1.94-3.78-3.66-4.88-5.88-2.11-4.3-3.21-9.13-5.52-13.3-4.13-7.46-8.74-14.68-13.41-21.82a5.57,5.57,0,0,0-4.38-2.26c-3.22.48-6.27,1.94-9.45,2.77-2.85.74-3.74,2.55-3.51,5.24.42,4.9.6,9.83,1.3,14.69.88,6.17,2.4,12.15,6.54,17.18,1.69,2,2.84,4.9.38,6.91-1.84,1.51-4.85,3.06-6.85,2.57-3-.72-6.55-2.6-8.07-5.09-3.38-5.54-7.53-6.62-13.17-4.66-.16.06-.39-.1-.72-.19a3.48,3.48,0,0,1-.48-1.05,27.67,27.67,0,0,1-.18-3.52c.25-10.43-.2-20.77-4.31-30.56-2.93-7-6-13.92-9.14-20.84-1.38-3.07-1.19-3.65,2-4.91a8.43,8.43,0,0,0,2.3-1.62c4.3-3.79,8.51-7.68,12.89-11.37C279.34,94.49,280.84,94.45,282.05,94.08Zm131,84.41c3,4.25,5.4,8.48,8.63,11.89A174.2,174.2,0,0,0,437,204.45a52.39,52.39,0,0,0,10,6.22c9.71,4.87,20.63,4.24,31,6.17,17.46,3.27,35,1.76,52.18-2.64,5-1.27,9.74-3.22,14.72-4.26,9.29-2,18.65-3.54,28-5.17,10.85-1.88,19.68-8.33,29.4-12.77a2.15,2.15,0,0,0,.88-.91c2.09-4,4-7.91,3.58-12.72-1.18-12.06-5.37-23.31-9.31-34.57-3.54-10.1-10.79-12.37-18.88-6.54a8.3,8.3,0,0,0-3,4.28c-1.72,6.68-2.36,13.39-.46,20.25,1.64,6,1,6.73-4.87,9.06l-.59.24c-4.08,1.53-5.2.83-6.62-3.27a41.42,41.42,0,0,0-3.59-7.44c-2-3.37-4.74-6.39-6.26-9.95-1.74-4.08-4.57-6-8.56-7.32-3.31-1.06-5.6.12-7.78,2.26s-1.56,4.18-.17,6.38c.68,1.08,1.1,2.32,1.71,3.45,4.67,8.61,2.86,14.41-6.36,17.69-13.32,4.73-27,8.39-41.16,9.52-11.09.88-22.24,1.12-33.19-1.46-5.18-1.22-10.5-2.39-14-7-2.46-3.24-2.24-5.31,1.48-6.72,7.17-2.72,14.42-5.3,21.79-7.41,5.22-1.49,10.77-1.83,16-3.29,2.1-.59,5.37-2.91,5.3-4.3-.25-4.9-.68-10.32-3-14.43A16.46,16.46,0,0,1,483,126.57a4.84,4.84,0,0,1,2.68-3.43c1.18-.3,3.15.61,4.08,1.63,1.55,1.71,2.51,3.94,3.78,5.91,1.78,2.77,3.45,5.62,5.46,8.21a7.27,7.27,0,0,0,9.12,2.46,72.78,72.78,0,0,1,6.95-2.48c2.27-.63,3-2,2.91-4.22-.41-6.93-.6-13.87-1.08-20.79A12.67,12.67,0,0,0,511,103.4a35.54,35.54,0,0,1-7.31-6.19c-3.11-3.5-5.8-7.37-8.62-11.11a8.43,8.43,0,0,0-8.43-3.48c-5.18.71-8.94,3.27-11,8.17-2.48,5.81-4.84,11.67-7.55,17.37-4,8.33-3.84,16.85-2,25.6a3.06,3.06,0,0,1-1.34,2.65c-2.8,1-5.75,1.55-8.64,2.27-8.7,2.19-17.47,4.16-26.1,6.62s-15.37,7.34-18.71,16.11c-.27.71-1.64,1.71-2,1.55a4.28,4.28,0,0,1-2.19-2.29c-1.67-7.38-3.06-14.82-4.72-22.21-2.73-12.09-5.52-24.17-8.46-36.21a78.94,78.94,0,0,0-3.39-9.69A6.67,6.67,0,0,0,384.79,88c-6.31-.72-15.22,6.23-15.29,12.59-.1,7.56.69,15.13,1,22.7.61,15.92,4.15,31.3,8.39,46.57,1.07,3.88,1.71,7.9,2.42,11.87,1.08,6,1.58,12.13,3.18,18,2.1,7.61,5,15,7.66,22.45a3.14,3.14,0,0,0,2.24,1.81c5.23-.4,10.32,1,15.65-2.55s7.17-7.42,6.4-13.19a69.88,69.88,0,0,0-1.54-7.83c-1.39-5.49-3-10.93-4.35-16.43C409.65,180.36,410.42,179.2,413.06,178.49ZM161.93,142.78c-3-.09-4.48-1.62-5-4-.82-3.87-1.14-7.85-2.12-11.67C150.92,112,149.1,96.49,147.07,81c-.18-1.4-1.91-3.06-3.33-3.72-5-2.36-10.33-1.26-15.45-.38-2.36.4-5.59.78-6,4.31-.37,2.86-1.19,5.81-.83,8.59,1.45,11.12,3,22.25,5.06,33.26,1.73,9.09,5.69,17.77,5,27.31a12.34,12.34,0,0,1-1,3,10.7,10.7,0,0,1-2.8-1.71,12.19,12.19,0,0,1-1.76-3.4,50.14,50.14,0,0,0-11-16.1L94.78,155c3.1,3.18,6.26,6.77,9.78,9.94,2.76,2.47,2.78,5.25-.55,6.72a18.11,18.11,0,0,1-5.18,1.61c-6.06.66-12.13,1.43-18.21,1.54-11.43.19-22.87,0-34.31-.12a7.13,7.13,0,0,1-2.21-.33,7.71,7.71,0,0,1-5.61-6.75c-.1-1.58,1.73-3.66,3.2-4.9a48.05,48.05,0,0,1,7-4.44c6.28-3.67,12.67-7.14,18.8-11a7.45,7.45,0,0,0,3.12-4.89c.9-10.26-3.41-16.1-14.59-14.34-4.26.68-8.38,2.46-12.45,4-5.89,2.25-11.81,4.49-17.46,7.27a50.91,50.91,0,0,0-9.9,6.86c-2.68,2.25-4.8,5.15-7.33,7.58a10.45,10.45,0,0,0-3.43,7.63c-.16,5.13-.13,10.36-1.22,15.32C2.65,184,10.9,194.16,16,197c2.91,1.63,5.11,3.17,5.66,6.68a75.44,75.44,0,0,0,2.05,7.74c1.24,4.62,1.84,5,6.64,5.2,6.63.22,13.32.12,19.59,2.76,5.17,2.18,10.45,1.6,15.78.92C74.79,219.13,83.9,218,93,217c4.94-.51,9.74-.42,13.88-4.27,2.86-2.67,6.63-5.14,10.38-5.94,9.86-2.12,14.94-6.32,17-16.11.42-2,1.3-2.34,2.87-1.69a13,13,0,0,1,3.3,1.89,6.09,6.09,0,0,0,6.24,1.11c8.38-2.55,16.85-4.82,25.25-7.34,5-1.49,10.19-2.65,14.69-5.09,3.48-1.88,7.33-5,8.67-8.45,2.7-7,1.84-14.54-.46-21.71-2.22-6.92-4.82-13.72-6.92-20.67-1.61-5.31-2.62-10.8-4.06-16.16-.9-3.36-1.79-3.54-4.69-1.52a63.15,63.15,0,0,1-6.68,4.41c-6,3.16-10.3,7.16-9.75,14.82C163.06,134.37,162.25,138.52,161.93,142.78ZM706.72,181c-10.43,1.41-19.14-1.67-27.85-4.63-4.11-1.39-6.37-4.41-7.33-8.61a37,37,0,0,1-.46-15.87,4.88,4.88,0,0,1,1.9-3c.52-.29,1.93.88,2.87,1.5,2.81,1.84,5.35,4.53,8.43,5.44a90.48,90.48,0,0,0,19.06,3.89c15,1.09,30.1,1.47,45.16,2.08,1.57.07,3.69-1,4.66-.32,3.47,2.48,7.27,2,11.05,2.19.7,0,1.91,1,1.91,1.48,0,1.77.09,3.88-.8,5.25-1.89,2.92-1.65,5.74-1.08,8.89.23,1.3-.29,3.51-1.24,4.13-5.35,3.52-10.71,6.66-17.81,5.72a23.2,23.2,0,0,0-18.31,4.93c-5.88,4.9-11.19,10.54-17.34,15.06-7.85,5.77-16.54,9.88-26.85,8-1.79-.32-3.71-.06-5.4-.61-6.18-2-13.08-2.64-17.25-8.64-.85-1.21-1.64-2.46-2.45-3.69l-1.23.74c-.86,2.26-1.67,4.55-2.61,6.77a8,8,0,0,1-1.75,3c-7.81,6.8-17.3,7.82-26.87,6.41-6.38-1-11-5.56-13.47-11.62-1.75-4.37-3.83-8.95-1.29-13.89-4.71.69-7.55,4.62-6.22,9,1,3.23,2.71,6.24,4,9.4,2.28,5.73,6.58,9.61,12.33,10.78,11.88,2.42,23.8,3.37,34.37-4.74,3.15-2.41,4.75-2.08,7.57.49a15.26,15.26,0,0,0,4.29,2.68c6.15,2.57,12.49,1.47,18.67.36,15.44-2.79,28.26-10.5,39.31-21.5,2.6-2.59,5.54-5.25,8.84-6.64,3.87-1.63,8.28-2,12.49-2.75,5.36-.93,10.83-1.33,16.11-2.58s7.44-5.34,7.23-10.67a20.54,20.54,0,0,1,1.56-8.29c2.24-5.47,3.81-10.61-.07-16.13-1.42-2-2.72-3.06-5.12-2.93-5.12.29-10.25.57-15.38.71-10.14.26-20.29.57-30.44.56a136.68,136.68,0,0,1-17.87-1c-7.59-1-15.1-2.67-22.62-4.18a7.39,7.39,0,0,1-3.56-1.92c-1.66-1.63-3.14-1.71-4.72-.16-3.47,3.41-6.08,7.32-5.6,12.44.39,4,1.31,8,1.77,12,.42,3.6,1.73,6.6,4.84,8.59,4.39,2.8,9,4.78,14.45,4.61a4,4,0,0,1,2.84,1.49,2.63,2.63,0,0,1-.43,2.55c-3.41,1.82-6.87,4.56-10.47,4.81-8.66.59-15.37-4-19.36-11.4C653.82,171.15,650,160.6,650,149c0-5.78-6.16-10.39-10.57-8-2.93,1.55-5.79,3.23-8.72,4.77a8.48,8.48,0,0,0-5,8c.07,6.42.78,12.74,3.28,18.78,1.68,4.05,3.11,8.21,4.44,12.38,1.57,5-1,7.81-6.07,7-1.69-.27-3.4-.42-5.09-.7-3.47-.57-6.52,0-8.82,3.25,8.12,1.14,16,.28,23.84-1.41a3.48,3.48,0,0,0,2.24-2.24c.83-5.59.65-11-2.6-16.05-4.41-6.9-5.59-14.74-5.08-22.78.27-4.21,3.34-5.84,7.08-6.72,2.26-.53,4.4-.32,5.3,1.75,1.86,4.24,3.31,8.67,4.8,13.07.77,2.29,1.17,4.7,1.94,7s1.94,4.3,2.65,6.53c1.94,6.05,3.46,12.32,9.57,15.81,2.08,1.19,4.15,3.05,6.35,3.25a74.6,74.6,0,0,0,15.31-.06C693.14,191.63,700,187.46,706.72,181ZM156.08,217.16a31,31,0,0,1-4.62.49c-14.6-.75-29.05.95-43.48,2.76a5.09,5.09,0,0,0-3.31,1.57c-2.23,3.26-4.19,6.67-3.77,11,.18,1.87-.49,3.81-.5,5.72,0,4.34-.42,8.79.41,13s3.33,5.88,6.73,5.13c9.8-2.17,19.79-3.74,29.35-6.68,5.71-1.75,11.7-4.44,13.81-11.35.32-1.05,2-1.84,3.2-2.44,4.76-2.38,7.32-10.41,4.68-15C157.78,219.9,156.92,218.55,156.08,217.16Zm-62-124.58c-.41-1.84-.85-4.36-1.53-6.82-1-3.61-2.4-4.39-5.86-2.83-11.59,5.2-24,5.7-36.36,6.63-4.32.33-5.76,1.27-6.27,5.55-.21,1.69-.09,3.42-.16,5.13-.15,3.94-.07,7.92-.58,11.82-.53,4.15.07,6.31,4.11,7.4,5.51,1.48,11,4.28,17,1.68,1.05-.46,2.33-.34,3.47-.62,4.33-1,8.83-1.7,12.93-3.35A19.86,19.86,0,0,0,92.44,105C93.69,101.37,93.54,97.23,94.11,92.58Z" fill="#fff"/><path d="M639.76,121.29c-3-.17-6,0-8.94-.57-6-1.1-8-5.84-5.51-11.3a100,100,0,0,0,4.58-12.62c1.16-3.89,3.4-5.56,7.49-6.13,11.32-1.56,22.59-3.5,33.84-5.52,7.86-1.41,15.68-3.11,23.47-4.9,2.56-.59,4.91-2.14,7.47-2.8a28.9,28.9,0,0,1,7.8-.91,4.05,4.05,0,0,1,3.09,2.27,125.85,125.85,0,0,1,3.26,16.58c.74,7.2-2,9.81-9.26,10.42a49.72,49.72,0,0,0-9.69,2c-7.9,2.31-15.72,4.87-23.61,7.22C662.66,118.38,651.4,120.81,639.76,121.29Zm-1.54-4.35,0,.4c3.61-.36,7.22-.65,10.82-1.08,12.93-1.56,25.11-6.05,37.55-9.52a186.07,186.07,0,0,1,20.25-4.67c5.21-.85,7-1.94,6.53-7.3-.35-3.88-1.94-7.63-2.47-11.52-.39-2.86-1.9-3.34-4.15-3a20.12,20.12,0,0,0-3.93,1.3c-4.54,1.81-9,3.93-13.62,5.39-3.12,1-6.53,1-9.81,1.51-13.83,2.13-27.67,4.23-41.48,6.51a5,5,0,0,0-3.24,2.53c-2.39,5.46-4.5,11.06-6.69,16.61-.72,1.82.17,2.71,1.88,2.77C632.65,117,635.44,116.94,638.22,116.94Z" fill="#fff"/><path d="M601.86,234.44v1.92c0,7.21-1.71,9.81-8.76,11.76-5.23,1.45-10.64,2.22-16,3.35-6,1.29-12,2.72-18.09,3.94a27.67,27.67,0,0,1-15.72-1.66c-1.61-.62-3.58-3-3.58-4.64a227.09,227.09,0,0,1,1.09-23.32c.41-4,2.92-6.49,7.5-6.92a76.42,76.42,0,0,0,23.11-6.22,27.84,27.84,0,0,1,21.86-.13c5.21,2.06,7,6.68,7.75,11.7.53,3.36.62,6.8.91,10.21Zm-49.4,17.29c3.26-.51,6.53-.93,9.76-1.56,5.83-1.14,11.67-2.29,17.45-3.66,5.28-1.26,10.55-2.65,15.7-4.38a5,5,0,0,0,2.83-3.66A67.77,67.77,0,0,0,597,224.15c-.57-2.52-2.53-5.62-4.73-6.69a19.82,19.82,0,0,0-16.55-.64c-8.38,3.58-17.23,4.82-26.06,6.31-4.48.76-6.25,2.65-6.49,7.25-.16,3.2-.13,6.42-.36,9.62C542,250.44,542,250.44,552.46,251.73Z" fill="#fff"/><path d="M231.83,192.77c-1.09-2.08-1.61-3.1-2.16-4.12-5.17-9.67-2.94-18.91,7.07-26.31,4.42-3.28,9.57-5.63,14.53-8.12,2.36-1.19,3.32-2.52,2.91-5.23a41,41,0,0,0-5.08-14.76,49.78,49.78,0,0,1-6.77-23.84c-.12-4.12-.36-4.12-4.6-3.68-3.7.39-7.44.62-11.16.67-4.09,0-7.67-3.61-9-7.59-.8-2.39-2.84-4.41-4.48-6.46-2.56-3.21-5.28-6.29-7.87-9.47A17.4,17.4,0,0,1,203.79,81c4-1.1,7.57-2.25,11.21-3,1.32-.26,2.83.66,4.29.82,18.94,2,36.41-2,51.87-13.35a158.34,158.34,0,0,0,13.15-11.28,81.35,81.35,0,0,0,6.09-7.05,6.48,6.48,0,0,1,5.22,5.49c1.65,9.09.74,17.28-7.24,23.74-5.11,4.14-9.26,9.43-14.05,14a58.61,58.61,0,0,1-20.49,12.31c-2.21.81-2.19,1.75-1.34,3.55,3.31,7.06,7.27,13.93,9.6,21.31a273,273,0,0,1,7.49,31.14c.76,3.95-.33,8.28-.67,12.43-.3,3.6-2.93,5.17-5.88,6.33-1.69.66-3.44,1.19-5.17,1.72-2.35.72-4.42,1.39-7.24.82s-6.1,1.29-9.09,2.34c-.28.09-.2,2.08.17,3,1.93,4.84,4.2,9.54,6,14.43,2.21,6.05-.07,13-8.28,16A66.51,66.51,0,0,1,213,219.7c-4.68-.21-9.4.51-14.1.58-3.48.06-7-.58-10.43-.32a94.52,94.52,0,0,0-11.64,1.94c-1.62.33-3.66,2-4.64,1.43a18.67,18.67,0,0,1-5.48-5.16c-4-5.22-1.57-10.24,1.24-14.86a8.19,8.19,0,0,1,5-3.09c15-3,30-6,45.42-6.26C222.59,193.88,226.8,193.23,231.83,192.77Z" fill="#fff"/><path d="M283.66,176.12a80.77,80.77,0,0,1,4.85,8.7c1,2.47,2.61,3.44,4.93,2.88,5.59-1.35,11.16-2.83,16.67-4.48,2.41-.73,3.2-3,2.72-5.21a29.22,29.22,0,0,0-2.85-8c-4.79-8.45-7.8-17.34-7.86-27.12a13.52,13.52,0,0,1,.33-3.49c.74-2.75,3.15-3.83,5.41-2.17a16.3,16.3,0,0,1,4.52,4.81c4.49,7.91,9.07,15.8,12.9,24,2.08,4.46,3,9.52,3.89,14.42.47,2.64,1,3.9,3.9,3.42,5.28-.86,10.59-1.56,15.89-2.24,3.05-.39,3.9-1.92,3.19-4.86-3.47-14.23-6.77-28.5-10.28-42.72-1.64-6.63-4.34-13.07-5.22-19.77-.59-4.5.67-9.45,2.05-13.91.82-2.65,3.85-2.75,5.63-.42,2.25,2.93,4.76,6,5.75,9.49,6.44,22.51,12.58,45.11,18.62,67.72,1.07,4,1.15,8.26,1.86,12.37.94,5.4-.95,10.21-3.3,14.74a8.31,8.31,0,0,1-5,3.57c-6.11,1.47-12.33,2.49-18.53,3.54-2.21.38-4.52.16-6.71.58-6.52,1.25-12.86-.6-19.28-.89a28.78,28.78,0,0,0-6.89.25c-6.18,1.25-12.27,3-18.46,4.16-4.73.93-6.79-.42-8.53-5-.49-1.28-.62-2.7-1-4-1-3.33-1.91-6.69-3.07-10a21,21,0,0,1,2.59-20Z" fill="#fff"/><path d="M304.77,105.8c.36,5.46-3.41,7.73-7.23,9.79-.9.49-2.26.22-3.39.15a8.33,8.33,0,0,1-2.16-.58c-3.64-1.3-8.62-1.68-9.08-6.34-.53-5.38,1.67-10.45,5.59-14.41a4,4,0,0,1,3.15-1c5,1.33,9.63,3.38,11.88,8.57C304.06,103.19,304.36,104.52,304.77,105.8Z" fill="#fff"/><path d="M545,149.39c1.79,1.36,3.84,2.49,5.33,4.13,5.11,5.57,7.55,12.5,9,19.74.56,2.93,1.43,3.89,4.36,3.07,5.46-1.52,11-2.78,16.46-4.28a14.48,14.48,0,0,0,4-1.94c2.23-1.47,2.59-3,.89-5.53-3.83-5.65-4.39-12.2-3.92-18.81a5.63,5.63,0,0,1,4.64-5.48,5.81,5.81,0,0,1,6.54,3,19.09,19.09,0,0,1,1.79,4.09c1.92,6.23,4.07,12.41,5.49,18.76a58.16,58.16,0,0,1,1.11,13.32c-.07,4.77-3.1,7.7-6.63,11-7.75,7.2-17.63,7.11-26.76,9.51-6.17,1.62-12.59,2.27-18.9,3.36a9.76,9.76,0,0,0-2.5.54c-10.52,4.94-21.88,5.44-33.16,6.24-9.59.67-19.2,1.28-28.82,1.53C469,212,455,207.5,442.18,200.52c-7.15-3.9-12.94-10.24-17.9-17.16-5.3-7.39-5.35-15.59-5.41-23.91a5.15,5.15,0,0,1,2.33-3.74c18-9.7,36.92-16.46,57.67-16.73,6-.08,7.25,3.63,6.12,8.81-.79,3.64-3,4.13-6.24,4.46-13.14,1.38-26,4-37.94,10-5.24,2.64-6.68,9.83-2.58,14,5.78,5.86,13.21,8.44,21,9.24,17,1.73,34,.13,50.87-2.19a90.67,90.67,0,0,0,26.48-7.37c8.25-3.88,9.94-7.33,8.3-16.29-.57-3.11-.81-6.28-1.2-9.42Z" fill="#fff"/><path d="M375.89,111.29c.4-2.67.37-5.25,1.26-7.47.79-2,2.3-4.6,4-5.11,2.71-.8,5.5,1,7,3.5a35.73,35.73,0,0,1,4.87,15c.9,8.9,3.14,17.66,4.6,26.51Q402.49,173,407,202.34a29,29,0,0,1-.13,7.67c-.31,2.64-1.41,5-4.34,5.75-3.12.77-5.23-1-6.59-3.43-3.87-7-7.75-14.12-9-22.18-3.48-23.37-6.81-46.76-10.16-70.14C376.43,117.06,376.2,114.07,375.89,111.29Z" fill="#fff"/><path d="M482.41,111.38c-.88,4.64-1.29,8.62-2.49,12.33a12,12,0,0,1-4.15,5.64c-2.14,1.57-3.86.56-4.42-2-1.76-8.32-1.49-16.29,3.31-23.8,2.33-3.65,3.91-7.77,5.9-11.64,1.56-3,4-4.19,6.82-2.63C496,94,504.24,99.39,508.81,108.38a37.53,37.53,0,0,1,3.77,20.24c-.31,3.81-5.56,5.66-9.05,3.17a10.17,10.17,0,0,1-2.59-2.8c-3.24-5.2-7.82-9-12.72-12.46A75.5,75.5,0,0,1,482.41,111.38Z" fill="#fff"/><path d="M55.65,209.14c-7.76-.35-14.59-.68-21.43-.95-2.39-.09-3.12-.82-2.91-3.55.29-3.9-.37-7.71-4.21-10.37-5-3.43-9.53-7.36-10.89-13.74-1.49-7-3.83-13.88-1.6-21.14,2.52-8.17,8.89-12.8,16-16.22,8.35-4,17.13-7.2,25.7-10.82,1.89-.8,2.82-.16,3.9,1.41,3.57,5.18,1.37,9.39-3.1,12.53A12.17,12.17,0,0,1,53.63,148c-9.72,3-16.22,10.45-23.38,17-1.74,1.59-1.7,2.84.05,4.47,2.9,2.69,5.48,5.72,8.42,8.34A7.74,7.74,0,0,0,43,179.49c20.26,1.43,40.43,1.4,60.26-3.93,3.2-.86,6.41-1.7,9.63-2.45,2-.47,2.77-1.45,1.8-3.42a23.4,23.4,0,0,0-2.13-4.28c-4.47-5.7-4.21-11.9-2-18.24a9.11,9.11,0,0,1,2.67-3.5c1.69-1.51,3.56-1.63,4.82.59,7,12.3,13,24.94,11.91,39.61-.39,5.3-2.1,9.27-7.61,12.51-14.41,8.5-30.44,9.33-46.15,11.69C69.16,209.14,61.91,208.85,55.65,209.14Z" fill="#fff"/><path d="M189.8,159.45c-.18,1.94-.26,4.09-.6,6.2-.56,3.39-1.78,6-5.71,7.09-7.61,2.1-15.09,4.67-22.58,7.21-2.06.7-3.87,2.16-5.94,2.86a19.61,19.61,0,0,1-5.05.55c-.37,0-.74-.44-1.13-.51-5.5-.93-5.47-.93-6-6.15-1.6-14.85-3.08-29.71-4.93-44.53-.58-4.62-2.12-9.14-3.34-13.67-1.75-6.49-4.26-12.86-5.19-19.46-.64-4.57.44-9.53,1.52-14.13.84-3.6,5.62-4.43,8.09-1.57a16.46,16.46,0,0,1,3.55,6.28c1.44,5.53,2.29,11.22,3.52,16.81.85,3.85,2.16,7.61,2.86,11.48q3.09,17,5.8,34.13c.65,4.09.46,4.19,4.48,3.27s7.92-1.87,11.85-2.92c2.88-.76,2.89-1.45,1.63-4a29.6,29.6,0,0,1-3-8.56,37.16,37.16,0,0,1-.07-11.19,21.28,21.28,0,0,1,3.66-8c1.31-2,3.27-1.82,4.61.45a6.12,6.12,0,0,1,.31.56c4,11.06,10.79,21.19,11.42,33.41C189.6,156.48,189.7,157.87,189.8,159.45Z" fill="#fff"/><path d="M133.9,222.84c3.75-.63,7.52-1.15,11.24-1.93s7.94,3.47,6.83,7a14.67,14.67,0,0,1-2.86,4.89,60.46,60.46,0,0,1-6.74,6.93c-1.32,1.13-3.33,1.41-4.83,2.37-7,4.54-15.14,5.55-23.1,7-2.81.51-4.51-1.19-5.41-3.55-2.63-6.92-1.14-13.69,1.25-20.32a3.74,3.74,0,0,1,2.78-1.67c6.9-.62,13.83-1,20.74-1.54Z" fill="#fff"/><path d="M50.13,103.75a35.52,35.52,0,0,1,.35-4.43c.76-3.88,2.29-4.21,6.2-4.1,4.85.14,9.74-.76,14.59-1.4a19.63,19.63,0,0,0,5.85-1.61c3.53-1.7,5.89-.15,8.17,2.27,2,2.18,1.32,4.5.53,6.86a7.61,7.61,0,0,0-.6,1.82C85,109,81,111.47,76.22,113a142.56,142.56,0,0,1-14.44,3.91C56.2,118,51.13,114,50.4,108.26,50.22,106.89,50.22,105.49,50.13,103.75Z" fill="#fff"/><path d="M652.45,111.94c-3.87-.44-7.13-.87-10.4-1.16-2.86-.25-5-1.59-5.59-4.36-.52-2.59,2.9-6.76,5.73-7.29q9.6-1.8,19.25-3.33c12.79-2,25.44-4.61,37.62-9.14,4.1-1.52,4.81-1.12,6.52,2.9,2.3,5.45,1,8.46-4.63,10.33-7.18,2.41-14.25,5.28-21.59,7.06C670.36,109.12,661.14,110.37,652.45,111.94Z" fill="#fff"/><path d="M578.73,224.09c1.92,0,3.85,0,5.78,0,5.66.16,10,7.12,7.75,12.31-1.31,3.06-4.23,3.48-6.68,3.58a68.81,68.81,0,0,0-20.2,4.4c-6.66,2.37-11.44,1.62-11.81-8.16a17.57,17.57,0,0,1,0-1.92c.63-7.45.63-7.48,7.93-8.48,5.7-.79,11.42-1.49,17.14-2.23Z" fill="#fff"/><path d="M373.6,4.58a5.84,5.84,0,0,0-2.06-.38H354.18A5.81,5.81,0,0,0,348.37,10V26.64a5.48,5.48,0,0,0,.16,1.35,5.8,5.8,0,0,1-3.75-5.44V5.92a5.81,5.81,0,0,1,5.81-5.8H368A5.81,5.81,0,0,1,373.6,4.58Z" stroke="#fff" stroke-miterlimit="10" stroke-width="0.23" fill="url(#bfc64064-9d5a-458a-919e-c2d662965538)"/><path d="M377.35,10V26.64a5.81,5.81,0,0,1-5.81,5.81H354.18A5.79,5.79,0,0,1,348.53,28a5.48,5.48,0,0,1-.16-1.35V10a5.81,5.81,0,0,1,5.81-5.81h17.36A5.82,5.82,0,0,1,377.35,10Z" stroke="#fff" stroke-miterlimit="10" stroke-width="0.23" fill="url(#bfc64064-9d5a-458a-919e-c2d662965538)"/><g id="fb20a261-8c22-458f-9972-ded98f4e2a50" data-name="AP FULL"><path d="M359.59,10.32H356l.3,1.17L351.6,26.61h2.66l1.33-4.51h4.74l1.33,4.51h3Zm-3.4,9.17,1.77-7,2.07,7Z" fill="#fff"/><path d="M374.63,14.82a5,5,0,0,0-1.11-3.11A5.31,5.31,0,0,0,369.7,10h-.06c-3,0-3.83.05-5,.06l-.06,16.55h2.69c0-2,0-4,0-6,.27,0,.65,0,1.12,0,1.35-.08,3.49-.2,4.93-1.76A5.55,5.55,0,0,0,374.63,14.82Zm-3.43,2.36a3.25,3.25,0,0,1-2.11.95,4.62,4.62,0,0,1-1.72-.06V12.63a3.46,3.46,0,0,1,4.11,1.44A2.88,2.88,0,0,1,371.2,17.18Z" fill="#fff"/></g><path d="M379.81,22.87H383l-.19,1.43h-3.17Z" fill="#fff"/><path d="M385.25,18.38H387a5.65,5.65,0,0,1,2,.26,2.06,2.06,0,0,1,1,.83,2.61,2.61,0,0,1,.35,1.37,2.33,2.33,0,0,1-.46,1.48,2.39,2.39,0,0,1-1.26.81,7,7,0,0,1-1.7.14v3.58h-1.61Zm1.61,3.31h.51a3.15,3.15,0,0,0,.84-.08.77.77,0,0,0,.37-.29.83.83,0,0,0,.14-.48.78.78,0,0,0-.38-.72,2.22,2.22,0,0,0-1-.17h-.45Z" fill="#fff"/><path d="M403,19.87,401.82,21a3.47,3.47,0,0,0-2.59-1.22,2.84,2.84,0,0,0-2.88,2.88,3,3,0,0,0,.37,1.5,2.58,2.58,0,0,0,1,1,3,3,0,0,0,1.5.38,3.18,3.18,0,0,0,1.28-.26,4.82,4.82,0,0,0,1.28-1l1.09,1.14a6,6,0,0,1-1.77,1.27,4.82,4.82,0,0,1-1.91.36A4.36,4.36,0,0,1,396,25.81a4.32,4.32,0,0,1-1.26-3.21,4.43,4.43,0,0,1,.57-2.25A4.23,4.23,0,0,1,397,18.77a4.62,4.62,0,0,1,2.3-.6,4.9,4.9,0,0,1,2,.44A5,5,0,0,1,403,19.87Z" fill="#fff"/><path d="M409.25,18.38h1.62v5.48a2.9,2.9,0,0,0,.12,1,1,1,0,0,0,.41.47,1.27,1.27,0,0,0,.69.18,1.36,1.36,0,0,0,.74-.2,1.06,1.06,0,0,0,.42-.5,3.6,3.6,0,0,0,.12-1.15V18.38H415v5.05a7.06,7.06,0,0,1-.15,1.78,2.27,2.27,0,0,1-.55.95,2.57,2.57,0,0,1-.93.69,3.33,3.33,0,0,1-1.23.22,2.94,2.94,0,0,1-1.61-.43,2.4,2.4,0,0,1-1-1.06,5.47,5.47,0,0,1-.3-2.15Z" fill="#fff"/><path d="M391.74,20.17h1.6v6.68h-1.6Z" fill="#fff"/><path d="M403.52,18.38h4.68V20h-1.54v6.88H405V20h-1.5Z" fill="#fff"/><path d="M417,18.38h1.71a5.86,5.86,0,0,1,2,.25,2.19,2.19,0,0,1,1,.83,2.58,2.58,0,0,1,.36,1.38,2.41,2.41,0,0,1-.4,1.4,2.46,2.46,0,0,1-1.21.85l2,3.76h-1.76l-1.91-3.58h-.15v3.58H417Zm1.61,3.31h.51a2,2,0,0,0,1.06-.2.76.76,0,0,0,.29-.67.81.81,0,0,0-.15-.48.76.76,0,0,0-.38-.3A2.94,2.94,0,0,0,419,20h-.44Z" fill="#fff"/><path d="M423.71,18.38h4.62V20h-3v1.53h3V23h-3v2.23h3v1.58h-4.62Z" fill="#fff"/><path d="M434.28,19.53l-1.19,1.06a1.69,1.69,0,0,0-1.28-.88.79.79,0,0,0-.52.17.48.48,0,0,0-.2.38.7.7,0,0,0,.14.41,11.8,11.8,0,0,0,1.18,1.09c.62.51,1,.84,1.12,1a3.43,3.43,0,0,1,.7.95,2.47,2.47,0,0,1,.2,1,2.28,2.28,0,0,1-.72,1.72,2.63,2.63,0,0,1-1.88.68,2.73,2.73,0,0,1-1.57-.45,3.39,3.39,0,0,1-1.15-1.39l1.35-.82c.41.75.88,1.13,1.41,1.13a1.05,1.05,0,0,0,.7-.25.7.7,0,0,0,.28-.56,1,1,0,0,0-.21-.57,6.63,6.63,0,0,0-.94-.88,9.48,9.48,0,0,1-1.79-1.75,2.18,2.18,0,0,1-.41-1.22,2,2,0,0,1,.67-1.51,2.35,2.35,0,0,1,1.66-.63,2.66,2.66,0,0,1,1.21.29A4.55,4.55,0,0,1,434.28,19.53Z" fill="#fff"/><rect x="391.74" y="18.31" width="1.61" height="1.57" rx="0.2" transform="translate(785.08 38.24) rotate(-179.99)" stroke="#fff" stroke-miterlimit="10" stroke-width="0.06" fill="url(#fded8f86-2929-4f39-afa1-0ecee1f433c4)"/></g></g></svg>