<svg xmlns="http://www.w3.org/2000/svg" width="95.4" height="24.3" viewBox="0 0 95.4 24.3"><g id="e3466cdc-3596-4c14-ab93-b517c454a3a9" data-name="Layer 2"><g id="bb5c255e-2328-4efd-9779-af9839a0a161" data-name="Layer 1"><g opacity="0.01"><path d="M94.9.9a.4.4,0,0,0,0-.8.4.4,0,0,0,0,.8Z" fill="#4b94d0"/></g><g opacity="0.01"><path d="M94.5,23.9h0v.2a.1.1,0,0,0,.1.1l.1.1H95c.1,0,.1-.1.2-.1a.1.1,0,0,1,.1-.1c0-.1.1-.1.1-.2v-.3a.1.1,0,0,0-.1-.1l-.1-.1h-.3c-.1,0-.1.1-.2.1a.1.1,0,0,1-.1.1.37.37,0,0,0-.1.3Z" fill="#4b94d0"/></g><g opacity="0.01"><path d="M.1,23.9h0v.2a.1.1,0,0,0,.1.1l.1.1H.6c.1,0,.1-.1.2-.1a.1.1,0,0,1,.1-.1c0-.1.1-.1.1-.2v-.3a.1.1,0,0,0-.1-.1l-.1-.1H.5c-.1,0-.1.1-.2.1a.1.1,0,0,1-.1.1.37.37,0,0,0-.1.3Z" fill="#4b94d0"/></g><g opacity="0.01"><path d="M.5.9H.7A.1.1,0,0,0,.8.8L.9.7V.4C.9.3.8.3.8.2A.1.1,0,0,1,.7.1C.6.1.6,0,.5,0H.2A.1.1,0,0,0,.1.1L0,.2V.5C0,.6.1.6.1.7A.1.1,0,0,1,.2.8C.4.9.4.9.5.9Z" fill="#4b94d0"/></g><path d="M3.5,4.6H6.6a9.83,9.83,0,0,1,3.6.5,3.91,3.91,0,0,1,1.7,1.4A4.87,4.87,0,0,1,12.5,9a4.24,4.24,0,0,1-.8,2.6,4.64,4.64,0,0,1-2.3,1.5,12,12,0,0,1-3.1.2v6.4H3.5Zm2.9,5.9h.9a4.87,4.87,0,0,0,1.5-.2.84.84,0,0,0,.7-.4c.2-.2.2-.5.2-.9A1.36,1.36,0,0,0,9,7.7a3.36,3.36,0,0,0-1.8-.3H6.4Z" fill="none" stroke="#fff" stroke-miterlimit="10" stroke-width="0.16" opacity="0.15" style="isolation:isolate"/><path d="M35.3,7.3l-2,1.9A6.15,6.15,0,0,0,28.6,7a5.12,5.12,0,0,0-5.2,5.2A5.21,5.21,0,0,0,26,16.8a6,6,0,0,0,2.7.7A5.93,5.93,0,0,0,31,17a8,8,0,0,0,2.3-1.7l2,2a10.16,10.16,0,0,1-3.2,2.3,9,9,0,0,1-3.4.6,7.87,7.87,0,0,1-8.1-8.1,7.44,7.44,0,0,1,1-4,7.79,7.79,0,0,1,2.9-2.8A8.33,8.33,0,0,1,32.2,5,7.23,7.23,0,0,1,35.3,7.3Z" fill="none" stroke="#fff" stroke-miterlimit="10" stroke-width="0.16" opacity="0.15" style="isolation:isolate"/><path d="M46.6,4.6h2.9v9.8a7.45,7.45,0,0,0,.2,1.8,1.39,1.39,0,0,0,.7.8,2.38,2.38,0,0,0,1.2.3,1.84,1.84,0,0,0,1.3-.4,1.76,1.76,0,0,0,.8-.9,9.1,9.1,0,0,0,.2-2.1V4.6h2.9v9.1a11.71,11.71,0,0,1-.3,3.2,4.25,4.25,0,0,1-1,1.7,3.35,3.35,0,0,1-1.7,1.2,5.09,5.09,0,0,1-2.2.4,5.47,5.47,0,0,1-2.9-.8,4.69,4.69,0,0,1-1.8-1.9,9.62,9.62,0,0,1-.5-3.9v-9Z" fill="none" stroke="#fff" stroke-miterlimit="10" stroke-width="0.16" opacity="0.15" style="isolation:isolate"/><rect x="15.2" y="7.8" width="2.9" height="12" fill="none" stroke="#fff" stroke-miterlimit="10" stroke-width="0.16" opacity="0.15" style="isolation:isolate"/><polygon points="36.4 4.6 44.8 4.6 44.8 7.5 42 7.5 42 19.8 39.1 19.8 39.1 7.5 36.4 7.5 36.4 4.6" fill="none" stroke="#fff" stroke-miterlimit="10" stroke-width="0.16" opacity="0.15" style="isolation:isolate"/><path d="M60.5,4.6h3.1a10.36,10.36,0,0,1,3.6.4,3.53,3.53,0,0,1,1.7,1.5A5.14,5.14,0,0,1,69.5,9a4.09,4.09,0,0,1-.7,2.5A4,4,0,0,1,66.6,13l3.6,6.8H67l-3.4-6.4h-.3v6.4H60.5Zm2.9,5.9h.9a3,3,0,0,0,1.9-.4,1.36,1.36,0,0,0,.5-1.2,1.61,1.61,0,0,0-.3-.9,1.79,1.79,0,0,0-.7-.5c-.2,0-.7-.1-1.5-.1h-.8Z" fill="none" stroke="#fff" stroke-miterlimit="10" stroke-width="0.16" opacity="0.15" style="isolation:isolate"/><polygon points="72.6 4.6 80.9 4.6 80.9 7.4 75.5 7.4 75.5 10.2 80.9 10.2 80.9 13 75.5 13 75.5 17 80.9 17 80.9 19.8 72.6 19.8 72.6 4.6" fill="none" stroke="#fff" stroke-miterlimit="10" stroke-width="0.16" opacity="0.15" style="isolation:isolate"/><path d="M91.6,6.7,89.5,8.6C88.7,7.6,88,7,87.2,7a1.22,1.22,0,0,0-.9.3,1,1,0,0,0-.4.7.91.91,0,0,0,.3.7,13.89,13.89,0,0,0,2.1,2c1.1.9,1.8,1.5,2,1.7a5.35,5.35,0,0,1,1.2,1.7,4.78,4.78,0,0,1,.4,1.8A4,4,0,0,1,90.6,19a4.87,4.87,0,0,1-3.4,1.2,5.12,5.12,0,0,1-2.8-.8,6.66,6.66,0,0,1-2.1-2.5l2.4-1.5c.7,1.3,1.6,2,2.5,2a2,2,0,0,0,1.3-.4,1.39,1.39,0,0,0,.5-1,1.43,1.43,0,0,0-.4-1,14.38,14.38,0,0,0-1.7-1.6,19,19,0,0,1-3.2-3.1A3.81,3.81,0,0,1,83,8.1a3.42,3.42,0,0,1,1.2-2.7,4,4,0,0,1,3-1.1,5.45,5.45,0,0,1,2.2.5A6,6,0,0,1,91.6,6.7Z" fill="none" stroke="#fff" stroke-miterlimit="10" stroke-width="0.16" opacity="0.15" style="isolation:isolate"/><path d="M15.8,4.5h1.7a.65.65,0,0,1,.6.6V6.8a.65.65,0,0,1-.6.6H15.8a.65.65,0,0,1-.6-.6V5.1A.58.58,0,0,1,15.8,4.5Z" fill="none" stroke="#fff" stroke-miterlimit="10" stroke-width="0.16" opacity="0.15" style="isolation:isolate"/></g></g></svg>